<svg xmlns="http://www.w3.org/2000/svg" viewBox="0 0 300 300.41"><defs><style>.cls-1{fill:#fff;}</style></defs><title>Asset 3</title><g id="Layer_2" data-name="Layer 2"><g id="Layer_1-2" data-name="Layer 1"><path class="cls-1" d="M0,166V134.9c.45-.23.35-.68.4-1.07.7-5.05,1.39-10.1,2.48-15.09A147.24,147.24,0,0,1,40.22,47.52Q77.41,8.16,131.27,1.11c2.3-.3,4.73,0,6.9-1.11h22.9c2.47,1,5.16.82,7.73,1.15a146.43,146.43,0,0,1,43,12.18q46.41,21.41,70.73,66.44a146.39,146.39,0,0,1,16,48.79c.48,3.33.51,6.73,1.45,10v23c-.88,2.45-.77,5-1.08,7.58a147.87,147.87,0,0,1-20.81,59.41,149.16,149.16,0,0,1-53,51.82A147.84,147.84,0,0,1,171.46,299c-3.18.46-6.45.43-9.56,1.44H138.14c-2.3-.94-4.78-.78-7.16-1.08a144.09,144.09,0,0,1-59.39-20.85q-57.72-36.21-70-103.37C1,172.07,1.2,168.9,0,166Zm158.39-12.24c1.79,2.71,1.83,3.32.51,5.89a19.34,19.34,0,0,1-1.13,2.17c-2.66,3.75-2.69,7.84-2.22,12.24.85,8,1.26,16,1.84,24a3.23,3.23,0,0,1-.56,2.33c-1.54,2.07-3,4.19-4.64,6.21a2.9,2.9,0,0,1-5-.1c-1.45-2-2.79-4-4.19-6a3.54,3.54,0,0,1-.62-2.31c.52-7.75.84-15.51,1.65-23.23.53-5.07.55-9.8-2.6-14.15-1.53-2.11-2.7-4.51-.06-7-10.67-.68-20.38,1.1-29.12,6.71C102.12,167,95.65,176,95.22,188.4c-.35,9.87-.07,19.76-.11,29.64,0,1.15.33,1.66,1.52,1.92,3.45.77,6.85,1.74,10.29,2.54A229.17,229.17,0,0,0,142.79,228a166.13,166.13,0,0,0,34.46-.78,107,107,0,0,0,25.81-6.66,2.14,2.14,0,0,0,1.58-2.26c-.06-9.81,0-19.62-.13-29.43A30.4,30.4,0,0,0,198,170.15C188,157.3,174.32,153,158.39,153.73Zm-6.07-74.1a35.17,35.17,0,1,0,35.15,35.2A35.17,35.17,0,0,0,152.32,79.63Z"/><path class="cls-1" d="M169.28,104a4.25,4.25,0,0,1,4.86,3.11,35.66,35.66,0,0,1,1.18,6c.23,2.08-1.16,3.78-3.38,4.54s-2.45,2-1,3.64a4.39,4.39,0,0,1,.23,6.26c-1,1.23-2,2.42-3,3.57a4.4,4.4,0,0,1-6.22.69c-1.67-1.12-3-.54-3.43,1.47-.59,2.95-2.07,4.15-5.12,4.12-1.36,0-2.72,0-4.08-.09a4.54,4.54,0,0,1-4.67-4.43,2.15,2.15,0,0,0-3.37-1.75,4.42,4.42,0,0,1-6-1.08c-1-1.26-2-2.58-2.92-3.93a4.39,4.39,0,0,1,.48-6c1.39-1.5,1-3.18-.84-4.07a4.46,4.46,0,0,1-2.55-5.39c.43-1.64.83-3.3,1.39-4.9a4.31,4.31,0,0,1,4.93-3,2.19,2.19,0,0,0,2.53-2.77c-.64-3.06.23-4.75,3.12-6,1.18-.51,2.36-1.06,3.54-1.57a4.42,4.42,0,0,1,6,1.88c1,1.66,2.76,1.71,3.91.11,1.46-2,3.25-2.65,5.5-1.69a41.83,41.83,0,0,1,5.07,2.61,4.34,4.34,0,0,1,1.71,5.54C166.29,103,167.2,104.25,169.28,104Zm-31,19.88c1,.6,1.62.47,2.22-.15,1.07-1.12,2.12-.89,3.21,0a11,11,0,0,0,5.2,2.69c1.68.3,2.35,1.1,2,2.77a5,5,0,0,0,0,1.22.62.62,0,0,0,.59.69c.47,0,.8-.13.84-.65a8.89,8.89,0,0,0,.06-1.63c-.16-1.32.37-2,1.71-2.18a7.29,7.29,0,0,0,3.8-1.37c2.1-1.87,4-2.43,6,0,.35.43.72.21,1-.13s.17-.74-.19-1a4.64,4.64,0,0,0-1-.71c-1.48-.57-1.82-1.41-1-2.82a11.58,11.58,0,0,0,1.66-6,2,2,0,0,1,2.05-2.35c.71-.09,2.21.16,1.94-1.09s-1.59-.48-2.29-.28c-1.41.42-2.12.06-2.59-1.31a7.89,7.89,0,0,0-2.27-3.59c-1.87-1.57-3.21-3.12-1.17-5.49.31-.35.21-.75-.26-1s-.76-.07-1,.36a4.9,4.9,0,0,0-.51.88c-.49,1.87-1.69,2-3.27,1.44a8.76,8.76,0,0,0-5.42-.27c-1.8.5-2.63,0-3.11-1.7-.15-.54-.19-1.58-1.23-1.15s-.35,1.15-.08,1.68c.79,1.49.63,2.59-.91,3.54a8.86,8.86,0,0,0-3.44,4c-.69,1.56-1.61,2.18-3.29,1.49-.53-.21-1.45-.68-1.66.38s.88.77,1.41,1c.93.41,2.17.29,2,2a12.16,12.16,0,0,0,1.63,7.44c.35.61.38,1.12-.3,1.56S139.3,123.21,138.3,123.92Z"/></g></g></svg>