<svg xmlns="http://www.w3.org/2000/svg" xmlns:xlink="http://www.w3.org/1999/xlink" viewBox="0 0 225.54 111.8"><defs><style>.cls-1{isolation:isolate;}.cls-2{fill:#e3e6eb;}.cls-3{fill:url(#linear-gradient);}.cls-4{fill:url(#linear-gradient-2);}.cls-5{opacity:0.3;mix-blend-mode:multiply;fill:url(#radial-gradient);}.cls-6{font-size:10px;fill:#fff;font-family:Poppins-Bold, Poppins;font-weight:700;}.cls-7{font-size:23.32px;fill:#f91f7b;font-family:Poppins-Regular, Poppins;}.cls-8{fill:#f42f39;}</style><linearGradient id="linear-gradient" x1="232.65" y1="-44.44" x2="16.83" y2="90.11" gradientUnits="userSpaceOnUse"><stop offset="0" stop-color="#19c73e"/><stop offset="0.18" stop-color="#ffec28"/><stop offset="0.37" stop-color="#f53"/><stop offset="0.52" stop-color="#f90b93"/><stop offset="0.65" stop-color="#6314a3"/><stop offset="0.73" stop-color="#2f5cc4"/><stop offset="0.84" stop-color="#00bde0"/><stop offset="1" stop-color="#19c73e"/></linearGradient><linearGradient id="linear-gradient-2" x1="17.13" y1="-16.72" x2="247.98" y2="113.73" xlink:href="#linear-gradient"/><radialGradient id="radial-gradient" cx="607.49" cy="963.87" r="7.36" gradientTransform="translate(-9191.81 -1063.58) scale(15.32 1.21)" gradientUnits="userSpaceOnUse"><stop offset="0.04" stop-color="#b3b5b8"/><stop offset="0.05" stop-color="#b5b7ba"/><stop offset="0.19" stop-color="#d0d1d3"/><stop offset="0.34" stop-color="#e5e5e6"/><stop offset="0.5" stop-color="#f4f4f4"/><stop offset="0.7" stop-color="#fcfcfc"/><stop offset="1" stop-color="#fff"/></radialGradient></defs><title>Asset 1</title><g class="cls-1"><g id="Layer_2" data-name="Layer 2"><g id="Layer_1-2" data-name="Layer 1"><rect class="cls-2" x="77.84" y="32.02" width="35.99" height="16.17"/><path class="cls-2" d="M111,73.15a35.83,35.83,0,1,1,34-46.44h-3.63a32.17,32.17,0,1,0-30.34,43,32,32,0,0,0,31.71-27.21l.17-1H115.33v6.85h-3.42V31.93h3.42V38h31.26A35.74,35.74,0,0,1,111,73.15Z"/><rect class="cls-3" x="77.96" y="31.8" width="37.76" height="16.85"/><path class="cls-4" d="M112.78,74.65a37.33,37.33,0,1,1,35.65-48.38h-3.82a33.7,33.7,0,1,0,1.44,16.41l.18-1.07H117.29v7.14H113.7v-17h3.59V38h32.8A37.38,37.38,0,0,1,112.78,74.65Z"/><path id="_Path_" data-name="&lt;Path&gt;" class="cls-5" d="M225.54,102.88c0,4.93-50.49,8.92-112.78,8.92S0,107.81,0,102.88,50.48,94,112.76,94,225.54,98,225.54,102.88Z"/><text class="cls-6" transform="translate(80.79 43.67)">STORE</text><text class="cls-7" transform="translate(19.64 94.47)">El Gantour Store</text><path class="cls-8" d="M117.3,66.19l-4.38.86c-.6.11-1-.28-.89-.82.08-.38.38-.48.72-.55l10.25-2a3.7,3.7,0,0,0,.72-.21.72.72,0,0,0,.5-.76c0-.41-.33-.58-.69-.66a2.12,2.12,0,0,0-.44,0l-7.83.35c-1.21,0-2.43.09-3.64.16a1,1,0,0,1-1.08-.64A12.55,12.55,0,0,0,110,60.7c-.67-1.27-1.35-2.54-2-3.82a.71.71,0,0,1,.53-1.13l.4-.08c4.61-.91,9.22-1.83,13.83-2.72.44-.08.59-.26.6-.68s.07-.86.12-1.29a2.33,2.33,0,0,1,1.77-2.16c.92-.25,1.86-.41,2.79-.6.54-.11.9.08,1,.5s-.18.76-.73.87c-.75.15-1.5.27-2.23.45a1.38,1.38,0,0,0-1.23,1.33c-.28,2.94-.55,5.89-.84,8.83a.53.53,0,0,0,.39.63,2.06,2.06,0,0,1,1.23,2.41,2.25,2.25,0,0,1-1.93,1.69c-1.76.36-3.53.7-5.29,1Zm-.78-10.59.4,2,2.81-.41L119.67,55Zm6.14,1.2a.35.35,0,0,0,.22-.21c.09-.75.15-1.5.22-2.29l-2.73.54.06,2.29Zm-6.87-1-3.1.61c.21.56.41,1.12.63,1.66a.38.38,0,0,0,.29.11l2.58-.38Zm6.51,4.88c.09,0,.23-.21.24-.33.07-.66.1-1.33.15-2.08l-2.21.29.06,2.19C121.15,60.68,121.73,60.68,122.3,60.63ZM117.16,59c.11.56.2,1.08.33,1.59a.37.37,0,0,0,.28.2c.68,0,1.36-.05,2.08-.08l-.07-2.1Zm-5.09-2.32a.43.43,0,0,0-.33-.18c-.7.12-1.39.27-2.18.42.29.55.55,1.05.82,1.55a.28.28,0,0,0,.23.07l2-.29C112.45,57.69,112.27,57.19,112.07,56.7Zm1.8,2.79.57,1.47,2.36-.08-.35-1.77Zm-2.76.41c.2.37.37.69.55,1a.39.39,0,0,0,.25.15c.57,0,1.14,0,1.79,0l-.54-1.42Z"/><path class="cls-8" d="M115.18,66.92a2.05,2.05,0,1,1,.77,4,2.05,2.05,0,0,1-.77-4Zm1,1.9a.66.66,0,0,0-1.29.23.66.66,0,1,0,1.29-.23Z"/><path class="cls-8" d="M123,69.56a2.06,2.06,0,1,1-.76-4,2.06,2.06,0,0,1,.76,4Zm-.26-1.38a.67.67,0,0,0,.51-.78.66.66,0,0,0-.77-.5.68.68,0,0,0-.52.77A.69.69,0,0,0,122.78,68.18Z"/></g></g></g></svg>